<svg width="90" height="85" viewBox="0 0 90 85" fill="none" xmlns="http://www.w3.org/2000/svg">
<rect x="16" y="7.1012" width="73.4146" height="70" rx="12.8049" fill="#2DF8BB"/>
<g filter="url(#filter0_bd_328_13)">
<rect x="6" y="0.101196" width="68.8051" height="68.8051" rx="12.1459" fill="#C9FFEF" fill-opacity="0.6" shape-rendering="crispEdges"/>
<g clip-path="url(#clip0_328_13)">
<path fill-rule="evenodd" clip-rule="evenodd" d="M59.5059 12.1183C59.7105 12.2448 59.8794 12.4215 59.9965 12.6316C60.1137 12.8417 60.1752 13.0782 60.1754 13.3187V55.689C60.1754 56.0636 60.0266 56.4228 59.7617 56.6877C59.4968 56.9526 59.1376 57.1014 58.763 57.1014H50.289C49.9144 57.1014 49.5552 56.9526 49.2903 56.6877C49.0254 56.4228 48.8766 56.0636 48.8766 55.689V51.452H46.0519V55.689C46.0519 56.0636 45.9031 56.4228 45.6383 56.6877C45.3734 56.9526 45.0142 57.1014 44.6396 57.1014H19.2174C18.8429 57.1014 18.4836 56.9526 18.2188 56.6877C17.9539 56.4228 17.8051 56.0636 17.8051 55.689V40.1532C17.8053 39.8569 17.8987 39.5682 18.0721 39.3279C18.2455 39.0877 18.49 38.908 18.7711 38.8143L34.7532 33.487V24.6175C34.7532 24.3554 34.8261 24.0985 34.9638 23.8755C35.1015 23.6525 35.2985 23.4723 35.5328 23.3549L58.1303 12.0561C58.3458 11.9482 58.5854 11.8973 58.8262 11.9082C59.067 11.9191 59.301 11.9914 59.5059 12.1183ZM34.7532 36.4642L20.6298 41.1701V54.2767H34.7532V36.4642ZM37.5779 54.2767H43.2273V50.0396C43.2273 49.6651 43.3761 49.3058 43.6409 49.041C43.9058 48.7761 44.265 48.6273 44.6396 48.6273H50.289C50.6635 48.6273 51.0228 48.7761 51.2876 49.041C51.5525 49.3058 51.7013 49.6651 51.7013 50.0396V54.2767H57.3507V15.6039L37.5779 25.4903V54.2767Z" fill="#212529"/>
<path d="M23.4545 42.9779H26.2792V45.8026H23.4545V42.9779ZM29.1038 42.9779H31.9285V45.8026H29.1038V42.9779ZM23.4545 48.6273H26.2792V51.452H23.4545V48.6273ZM29.1038 48.6273H31.9285V51.452H29.1038V48.6273ZM40.4026 37.3286H43.2273V40.1532H40.4026V37.3286ZM46.0519 37.3286H48.8766V40.1532H46.0519V37.3286ZM40.4026 42.9779H43.2273V45.8026H40.4026V42.9779ZM46.0519 42.9779H48.8766V45.8026H46.0519V42.9779ZM51.7013 37.3286H54.526V40.1532H51.7013V37.3286ZM51.7013 42.9779H54.526V45.8026H51.7013V42.9779ZM40.4026 31.6792H43.2273V34.5039H40.4026V31.6792ZM46.0519 31.6792H48.8766V34.5039H46.0519V31.6792ZM51.7013 31.6792H54.526V34.5039H51.7013V31.6792ZM40.4026 26.0298H43.2273V28.8545H40.4026V26.0298ZM46.0519 26.0298H48.8766V28.8545H46.0519V26.0298ZM51.7013 26.0298H54.526V28.8545H51.7013V26.0298ZM51.7013 20.3805H54.526V23.2051H51.7013V20.3805Z" fill="#212529"/>
</g>
</g>
<defs>
<filter id="filter0_bd_328_13" x="0.601802" y="-5.297" width="79.6015" height="84.9997" filterUnits="userSpaceOnUse" color-interpolation-filters="sRGB">
<feFlood flood-opacity="0" result="BackgroundImageFix"/>
<feGaussianBlur in="BackgroundImageFix" stdDeviation="2.6991"/>
<feComposite in2="SourceAlpha" operator="in" result="effect1_backgroundBlur_328_13"/>
<feColorMatrix in="SourceAlpha" type="matrix" values="0 0 0 0 0 0 0 0 0 0 0 0 0 0 0 0 0 0 127 0" result="hardAlpha"/>
<feOffset dy="5.3982"/>
<feGaussianBlur stdDeviation="2.6991"/>
<feComposite in2="hardAlpha" operator="out"/>
<feColorMatrix type="matrix" values="0 0 0 0 0.604167 0 0 0 0 0.604167 0 0 0 0 0.604167 0 0 0 0.1 0"/>
<feBlend mode="normal" in2="effect1_backgroundBlur_328_13" result="effect2_dropShadow_328_13"/>
<feBlend mode="normal" in="SourceGraphic" in2="effect2_dropShadow_328_13" result="shape"/>
</filter>
<clipPath id="clip0_328_13">
<rect width="45.1949" height="45.1949" fill="white" transform="translate(17.8051 11.9062)"/>
</clipPath>
</defs>
</svg>
